<?xml version="1.0" encoding="utf-8"?>
<!-- Generator: Adobe Illustrator 16.0.0, SVG Export Plug-In . SVG Version: 6.00 Build 0)  -->
<!DOCTYPE svg PUBLIC "-//W3C//DTD SVG 1.1//EN" "http://www.w3.org/Graphics/SVG/1.1/DTD/svg11.dtd">
<svg version="1.1" id="Layer_1" xmlns="http://www.w3.org/2000/svg" xmlns:xlink="http://www.w3.org/1999/xlink" x="0px" y="0px"
	 width="100px" height="100px" viewBox="0 0 100 100" enable-background="new 0 0 100 100" xml:space="preserve">
<g>
	<g>
		<path fill="#739DBC" d="M9.032,84.883c0.34-1.529,0.729-3.049,1.011-4.589c0.688-3.757,2.701-6.598,5.944-8.534
			c2.504-1.494,5.052-2.927,7.648-4.253c3.482-1.776,7.03-3.426,10.493-5.104c1.892,10.294,3.812,20.73,5.744,31.242
			c-0.954-0.054-1.972-0.097-2.988-0.176c-8.093-0.625-16.106-1.798-24.048-3.465c-1.975-0.416-3.202-1.52-3.806-3.397
			C9.032,86.029,9.032,85.458,9.032,84.883z"/>
		<path fill="#739DBC" d="M90.969,86.433c-0.65,2.183-2.189,3.129-4.385,3.522C78.797,91.354,71,92.681,63.119,93.439
			c-0.934,0.089-1.871,0.132-2.793,0.198c1.848-10.464,3.682-20.856,5.523-31.282c1.633,0.861,3.205,1.728,4.805,2.531
			c3.611,1.807,7.238,3.583,10.854,5.379c0.332,0.168,0.633,0.396,0.963,0.568c4.965,2.616,7.412,6.89,8.158,12.301
			c0.072,0.53,0.225,1.053,0.34,1.575C90.969,85.286,90.969,85.857,90.969,86.433z"/>
		<path fill="#739DBC" d="M60.488,57.356c-3.584,1.787-6.479,4.445-9.873,6.601c2.117,1.305,4.127,2.545,6.17,3.806
			c2.434-2.766,4.125-5.882,5.355-9.347c0.473,0.416,0.914,0.739,1.27,1.14c0.139,0.159,0.189,0.525,0.105,0.732
			c-1.35,3.438-3.203,6.59-5.469,9.502c-0.449,0.577-0.994,0.593-1.594,0.22c-1.09-0.677-2.186-1.345-3.289-2.021
			c-1.047,1.675-1.42,3.339-1.104,5.315c1.059,6.561,1.941,13.15,2.885,19.732c0.035,0.249,0.035,0.506,0.059,0.886
			c-3.41,0-6.765,0-10.219,0c0.222-1.655,0.418-3.183,0.629-4.711c0.821-5.932,1.647-11.863,2.463-17.796
			c0.028-0.216,0.015-0.469-0.069-0.665c-0.441-1.02-0.914-2.026-1.414-3.124c-1.273,0.782-2.481,1.531-3.694,2.268
			c-0.967,0.59-1.398,0.558-1.984-0.431c-1.725-2.904-3.37-5.852-5.077-8.764c-0.397-0.679-0.318-1.138,0.345-1.55
			c0.286-0.177,0.514-0.445,0.844-0.74c1.36,3.382,3.055,6.504,5.358,9.354c2.049-1.264,4.062-2.508,6.175-3.812
			c-3.09-2.141-5.765-4.671-9.027-6.511c1.21-1.937,0.665-3.822-0.236-5.743c-1.423-3.029-2.756-6.1-4.149-9.144
			c-0.186-0.41-0.414-0.861-0.753-1.128c-1.247-0.979-1.99-2.294-2.564-3.706c-0.54-1.323-0.979-2.688-1.405-4.053
			c-0.539-1.718-0.068-3.252,1.108-4.537c0.933-1.019,1.275-2.165,1.335-3.513c0.118-2.63,0.032-5.327,0.597-7.868
			c1.399-6.293,5.675-9.879,11.84-11.129c4.175-0.847,8.421-0.797,12.455,0.804c5.916,2.345,9.035,6.807,9.469,13.134
			c0.121,1.774,0.133,3.554,0.168,5.33c0.025,1.198,0.398,2.224,1.225,3.119c1.229,1.329,1.789,2.896,1.189,4.671
			c-0.613,1.81-1.309,3.595-2.049,5.36c-0.26,0.618-0.658,1.263-1.172,1.675c-1.018,0.818-1.469,1.897-1.943,3.054
			c-0.912,2.226-1.969,4.39-2.977,6.57c-0.336,0.727-0.756,1.418-1.07,2.155C59.701,54.115,59.477,55.747,60.488,57.356z"/>
	</g>
</g>
</svg>
